<?xml version="1.0" encoding="utf-8"?>
<!-- Generator: Adobe Illustrator 15.1.0, SVG Export Plug-In . SVG Version: 6.00 Build 0)  -->
<!DOCTYPE svg PUBLIC "-//W3C//DTD SVG 1.1//EN" "http://www.w3.org/Graphics/SVG/1.1/DTD/svg11.dtd">
<svg version="1.1" id="Layer_1" xmlns="http://www.w3.org/2000/svg" xmlns:xlink="http://www.w3.org/1999/xlink" x="0px" y="0px"
	 width="320px" height="64px" viewBox="0 0 320 64" enable-background="new 0 0 320 64" xml:space="preserve">
<g>
	<defs>
		<rect id="SVGID_1_" x="0" width="319.558" height="64"/>
	</defs>
	<clipPath id="SVGID_2_">
		<use xlink:href="#SVGID_1_"  overflow="visible"/>
	</clipPath>
	<path clip-path="url(#SVGID_2_)" fill="#323232" d="M233.301,0h31.758v6.715H240.4v19.861h8.635
		c7.867,0,22.066,1.631,22.066,18.037c0,12.185-8.154,19.381-20.723,19.381h-17.078V0z M240.4,57.277h8.252
		c2.877,0,8.154,0,11.801-3.55c1.727-1.631,3.357-4.51,3.357-9.114c0-3.069-0.768-7.292-5.182-9.69
		c-2.975-1.631-6.811-1.631-10.744-1.631H240.4V57.277z"/>
	<path clip-path="url(#SVGID_2_)" fill="#323232" d="M297.586,0c6.428,0,11.803,0.766,16.119,4.509
		c4.701,4.029,5.852,9.69,5.852,13.719c0,9.019-5.658,17.942-20.242,17.942h-6.236v27.824h-7.1V0H297.586z M293.078,29.454h5.852
		c8.443,0,13.527-4.221,13.527-11.609c0-10.169-9.498-11.129-14.102-11.129h-5.277V29.454z"/>
</g>
<path fill="#323232" d="M103.866,13.396l10.746,25.617H92.928L103.866,13.396z M102.694,0.033L74.604,64h7.867l7.675-17.989h27.248
	L124.877,64h7.867l-27.36-63.967H102.694z"/>
<polygon fill="#323232" points="203.385,0.033 180.049,50.466 157.118,0.033 154.922,0.033 144.836,64 152.129,64 158.461,19.479 
	178.73,64 181.189,64 201.73,19.479 207.775,64 213.889,64 215.066,64 205.631,0.033 "/>
<polygon fill="#323232" points="45.975,0.033 45.975,7.03 56.971,7.03 56.971,57.002 35.981,57.002 35.981,17 28.985,17 
	28.985,57.002 6.996,57.002 6.996,7.03 18.992,7.03 18.992,0.033 0,0.033 0,64 28.985,64 35.981,64 63.967,64 63.967,0.033 "/>
</svg>
